<svg width="580" height="400" xmlns="http://www.w3.org/2000/svg"
     xmlns:xlink="http://www.w3.org/1999/xlink">
    <path stroke="#000" id="svg_2"
          d="m142.8258,321.680174
          c 0,-1.811942 2.590986,-3.279586 5.789732,-3.279586
          c3.198746,0 5.789732,1.467644 5.789732,3.279586
          c0,1.811883 -2.590986,3.279527 -5.789732,3.279527
          c-3.198746,0 -5.789732,-1.467644 -5.789732,-3.279527 z
          m 11.868951,-23.563769
          c 0,-4.529953 6.477459,-8.199116 14.474341,-8.199116
          c 7.99687,0 14.47433,3.669163 14.47433,8.199116
          c0,4.529748 -6.477459,8.19897 -14.47433,8.19897
          c -7.996882,0 -14.474341,-3.669163 -14.474341,-8.19897 z
          m 27.501238,-35.725986
          c 0,-12.524116 22.541569,-22.668559 50.370691,-22.668559
          c 27.829041,0 50.370622,10.144442 50.370622,22.668559
          c0,12.524028 -22.54158,22.668383 -50.370622,22.668383
          c-27.829123,0 -50.370691,-10.144354 -50.370691,-22.668383z"
          stroke-width="1.5" fill="#fff"/>

    <ellipse ry="96.499999" rx="175.499997"
             id="dialog"
             cy="168.212495" cx="311.99999"
             stroke-width="1.5" stroke="#000" fill="#fff"/>

</svg>